HIERARCHY
ROOT Hips
{
  OFFSET 0 0 0
  CHANNELS 6 Xposition Yposition Zposition Zrotation Xrotation Yrotation
  JOINT Spine
  {
    OFFSET 0 10.1816 0.131521
    CHANNELS 3 Zrotation Xrotation Yrotation
    JOINT Spine1
    {
      OFFSET 0 10.0835 -1.0008
      CHANNELS 3 Zrotation Xrotation Yrotation
      JOINT Spine2
      {
        OFFSET 0 9.10001 -1.37342
        CHANNELS 3 Zrotation Xrotation Yrotation
        JOINT Neck
        {
          OFFSET 0 16.6717 -2.51617
          CHANNELS 3 Zrotation Xrotation Yrotation
          JOINT Head
          {
            OFFSET 0 9.61788 1.68501
            CHANNELS 3 Zrotation Xrotation Yrotation
            End Site
            {
              OFFSET 0 0 0
            }
          }
        }
        JOINT LeftShoulder
        {
          OFFSET 4.57045 10.946 -2.62799
          CHANNELS 3 Zrotation Xrotation Yrotation
          JOINT LeftArm
          {
            OFFSET 10.5924 -0.524583 -2.23212
            CHANNELS 3 Zrotation Xrotation Yrotation
            JOINT LeftForeArm
            {
              OFFSET 27.8415 -8.94286e-05 3.74589e-05
              CHANNELS 3 Zrotation Xrotation Yrotation
              JOINT LeftHand
              {
                OFFSET 28.3288 -1.74407e-05 3.78045e-05
                CHANNELS 3 Zrotation Xrotation Yrotation
                End Site
                {
                  OFFSET 0 0 0
                }
              }
            }
          }
        }
        JOINT RightShoulder
        {
          OFFSET -4.56997 10.9462 -2.62802
          CHANNELS 3 Zrotation Xrotation Yrotation
          JOINT RightArm
          {
            OFFSET -10.5928 -0.524798 -2.2321
            CHANNELS 3 Zrotation Xrotation Yrotation
            JOINT RightForeArm
            {
              OFFSET -27.8415 -3.30792e-05 1.16763e-05
              CHANNELS 3 Zrotation Xrotation Yrotation
              JOINT RightHand
              {
                OFFSET -28.3288 0 5.5816e-05
                CHANNELS 3 Zrotation Xrotation Yrotation
                End Site
                {
                  OFFSET 0 0 0
                }
              }
            }
          }
        }
      }
    }
  }
  JOINT LeftUpLeg
  {
    OFFSET 8.20778 -6.75171 -1.59956
    CHANNELS 3 Zrotation Xrotation Yrotation
    JOINT LeftLeg
    {
      OFFSET 0 -44.3705 0.284643
      CHANNELS 3 Zrotation Xrotation Yrotation
      JOINT LeftFoot
      {
        OFFSET 0 -44.4279 -2.98219
        CHANNELS 3 Zrotation Xrotation Yrotation
        JOINT LeftToeBase
        {
          OFFSET 0 -8.72867 10.7106
          CHANNELS 3 Zrotation Xrotation Yrotation
          End Site
          {
            OFFSET 0 0 0
          }
        }
      }
    }
  }
  JOINT RightUpLeg
  {
    OFFSET -8.2078 -6.75166 -1.59956
    CHANNELS 3 Zrotation Xrotation Yrotation
    JOINT RightLeg
    {
      OFFSET 0 -44.3705 0.286156
      CHANNELS 3 Zrotation Xrotation Yrotation
      JOINT RightFoot
      {
        OFFSET 0 -44.4277 -2.98379
        CHANNELS 3 Zrotation Xrotation Yrotation
        JOINT RightToeBase
        {
          OFFSET 0 -8.72867 10.7106
          CHANNELS 3 Zrotation Xrotation Yrotation
          End Site
          {
            OFFSET 0 0 0
          }
        }
      }
    }
  }
}
MOTION
Frames: 19
Frame Time:	0.0333333
-13.3961  162.665  694.332  12.6714 -4.82291  32.3028   35.985  37.8108 -13.2318   6.76369   20.9155 -0.578235  4.80124  2.85798 -1.44598 -2.03665 -14.7754  -1.5298 8.45919 22.5744 2.04073  -1.7341 -9.08387 -7.68223 -62.6705  17.1675 -26.0649  19.1684 -16.1353 -36.0895  -2.05589  -11.2491 -0.557648 -5.01483 -12.8866  7.69652 34.5401 8.27002 30.0141 -24.5142 -14.0188  26.6384  8.1313 16.8327 -1.0712  21.2014 -41.3296  7.56823  3.63342  4.18383 -4.02273 -10.1354  19.2875 -1.50267 3.72815 -13.934 6.76252 -47.9866 -12.4382 0.671363  -3.82915   14.9039 0.0417626   17.195  8.38544 -21.1161  1.66425 -10.3582 -6.97899 
-10.1915  164.349  702.715  9.70274 -4.26725  24.8206  31.6344  31.0118 -9.20734  6.55064  18.8859 0.117688  2.29491   5.7054 0.866197 -1.23475 -14.6656 -0.74941  8.60515  22.1167 0.965379 -1.08564 -6.21851 -5.17636 -67.5701   19.052 -20.4706  16.9264 -12.1143  -30.843  -1.61282  -7.16579 -0.387466 -5.55398 -10.0455  6.35073 37.5383 13.7215 25.5445 -22.7048 -10.7901  25.2719   6.67684   15.4959 -0.715109  17.2559 -36.0053  3.37907  3.67193  4.74438 -3.90261 -12.0393  18.7976  1.22458  2.21159 -9.79829  6.45049 -43.9795 -17.3201  2.72384 -3.92061  21.6143  2.20858  15.2149  0.30437 -20.1316   1.1023 -10.2432  -6.0577 
-9.63033  168.355  709.585  7.81095 -1.60857  20.2184 24.4417 25.4975 -5.2705   6.28261   16.0685 -0.226092 1.37024 6.12001 1.96937 -0.362735  -14.7223 -0.403139   8.39876    21.593 -0.156769   1.0845 -6.28433   -4.029 -71.0944  19.4542 -15.8829  15.0894 -9.16568 -26.8792  -1.00747  -3.47695 -0.311569 -4.00328 -8.10283  5.83993 42.6112  18.345  21.436 -20.8779 -8.12319  23.6441   4.99331    15.736 -0.569652  21.5113 -33.0931  3.39112  3.71797  5.41422 -3.68086 -15.1331  18.9008  3.54798 0.757151 -4.88547  6.22747  -40.221 -17.9733  3.39131 -3.8562 19.8346 1.82832  12.9699   -1.992 -21.6508 0.821066 -8.57806 -5.38856 
-9.15448  172.388  716.385   7.26744 0.0717244   13.4346  17.1274  19.9555 -2.63243   4.6792  13.1724 0.235926 0.723662  5.89128  2.46488 -0.605516  -15.3226 -0.680297    7.8559   21.0202 -0.769982   3.4142 -5.83842 -3.45566 -74.1274  20.5054 -10.6107  13.7783 -7.09877 -24.3273 -0.820724  -0.57404 -0.887656 -2.91634 -6.23393  5.24507 47.6587 22.1213 17.2193 -18.7483 -5.81072  21.7422   3.76875   15.8022 -0.779118  23.9485 -28.6402  4.59052  3.89908  8.20129 -3.70233 -15.2857  20.0702  6.35284 0.327462 -1.20557   5.5324 -36.8887 -18.7736  4.08436 -3.76882  16.9067   1.4512 12.2413 -1.4683 -22.318  1.11293 -7.33899 -4.29676 
-8.98029  176.276  722.484   7.29291 -0.445628   5.96783  10.6123  16.8898 -1.76015   3.3592  10.8706 0.354649 0.276346  5.91047  2.70367 -1.74828 -16.1934 -1.25853  7.05456   19.667 -0.39114  5.89067 -4.98378 -4.01355 -76.7048  20.4468 -5.02902    14.05  -6.4686 -22.5623 -1.26992  1.91621  -1.6053 -2.59858 -5.75943  4.42946 53.1171 24.6495 13.4066 -16.9195 -4.25621  20.1268   3.6649  16.6897 -1.10043  25.2464 -24.4464  7.07586  4.33438  15.2356 -2.95532 -13.5074  19.9678  6.89187  0.824327 -0.299442   4.96895 -33.4817 -20.9353  4.06952 -3.81942  18.5099  1.95237  12.7144  1.28811 -20.4753 0.771307 -6.68173 -4.24771 
-9.20633  179.605  727.608  6.72836 -2.49488 0.747322  6.31198  15.9346 -1.97957 1.89264  9.7854 0.13269 0.140166  5.97123  2.56736 -2.67813 -15.7567 -1.63474  7.17236   18.494 0.469163  7.26339 -4.76364 -4.41487 -79.4073  18.8485 0.182525  14.7234 -6.11887  -21.272 -1.76677  3.04414 -1.94923 -2.73441 -5.81622  3.37406  58.436 24.6881 10.0185 -15.5158 -2.95111  18.8111  3.62716  18.5583 -1.77894  24.5305 -22.0575  9.50552  4.86651  24.7596 -2.85827 -10.0685  13.2095  1.72033   1.44342 -0.874619   5.63859 -27.9683 -23.8854  4.17816 -4.27768  27.4832  3.24784  10.4298 -1.82579 -14.6386 0.183718 -3.71945 -4.59679 
-9.23367  181.839  731.383  6.97588 -4.54041  -2.5452  2.97483  17.0216 -1.90965  0.0900536    10.5538 -0.0350032 -0.860827   6.33904   2.28795 -3.12226 -14.6888 -1.79779 8.16794 16.7467 1.03764   7.6597 -5.66251 -5.51021 -81.169 16.2351 3.55131  14.7015 -5.97625 -19.8449 -2.13104  3.40582 -1.83011 -2.69818 -6.41271  3.67557 62.6857 22.7581 8.01031 -14.3127  -1.8927  16.4346   3.7636  20.9512 -2.73426   19.563 -23.4276    10.12  5.45822  34.2813 -3.30474 -8.36689  3.50323 -4.03206  2.10382 -2.32811  5.94855 -22.3557 -27.3401  4.70449 -5.23504  39.7775  4.12103  7.16325 -9.13965 -9.31778 -0.0738408   -3.34382   -4.12926 
-8.9893  182.47 734.699  6.60626 -6.78048 -5.63745 0.766455  18.7535 -1.31368 -1.38631  12.4247 0.170573 -2.06244  7.34392  2.24636 -3.69583  -13.064 -2.08737 9.02597 14.6956 1.17667  7.32723 -6.38039 -6.23364 -82.1116  9.02357  3.72356   12.956 -5.20865  -16.889 -2.23946  8.12613 -1.63626 -2.82177  -7.1051  4.43214  66.459 17.0005 7.52676 -12.8934 -1.01246  14.0757  3.94172  25.0823 -3.30561  14.1789 -26.3664  10.2231  6.2076  43.345 -4.0346 -8.85476  -5.9784 -8.79321  2.39083 -3.54294  5.96333 -16.2187 -29.9904  5.07318 -6.54082  51.3428  4.88007  3.60155 -16.8316 -7.42503 -0.138377  -3.24179  -2.67362 
-8.50362  181.409  738.588  5.24669 -8.70462 -9.00822 0.0697489   19.0808 -0.627029 -2.44283  13.2941 0.699764 -3.25651  7.74231  1.98397 -4.05401 -11.6799 -2.26784 9.69648 15.4425 0.54855  6.96058 -6.31832  -5.3608  -83.2903 -0.216389   3.40998  10.4418 -4.20422 -15.2635 -1.84364  15.2573 -1.33045 -3.12343 -7.20301  4.66494 69.2509 9.79273 6.67841   -11.994 -0.824156   11.9383   3.8059  30.6695 -3.18738  10.8388 -28.0795  10.9729 7.06046 50.2134 -5.6471 -9.09007 -13.5216 -11.0783   2.1756 -3.31799  5.95047 -11.2933 -30.4886  4.83812 -8.01521  59.3402  7.05253 0.838732 -22.5798 -7.38925 0.895402 -2.61167 -1.87532 
-7.9346 178.754 742.891  3.66603 -10.4971 -12.2799  -0.01896     18.93 -0.050726 -3.45599  12.8508 0.863087 -4.14232  7.31234  1.29119 -4.13844 -10.7455 -2.21026    10.6093    17.0964 -0.0893597  6.91384 -6.36613 -4.08908 -84.2783 -4.51862  3.79739  8.65672 -3.49508  -14.796 -1.43009  17.2013 -1.17689 -3.31713 -7.26064  4.38577 70.9179  6.3351 5.77459  -11.5973 -0.973773   10.4004  3.37059  33.3288 -2.26965  9.03852 -28.4832  11.5305 8.18313 56.0795 -7.4206 -9.58732  -20.214  -12.551  1.68634 -3.04587  5.66991 -9.38227 -29.6533  3.60474 -9.78938  64.9808  9.63195 -1.47796 -27.2344 -8.56465  2.12102 -2.09005 -1.06358 
-7.37964  175.989  746.957  2.33296 -11.7921 -15.0995 -0.00387827     19.0995    0.122269 -4.37721  12.2941 0.552587 -4.68734  6.47382 0.567659 -4.29311 -9.84911 -2.24658   11.8752   17.2795 -0.407952  6.37296  -7.0268 -3.49699 -84.8861 -4.57676  3.34667  7.97183 -3.10066  -15.146  -1.1819  15.0345 -1.12288 -3.48971 -7.91716  4.37163 72.1838 7.08558 5.30479 -11.7216 -1.24206  10.1194 3.14341 32.1741 -1.2775  9.81913 -28.0316  11.2673  10.7208  64.2661 -9.87069 -11.4127  -25.492 -14.4131  1.12427 -2.80205  5.81001 -10.8793 -29.1095  1.65909 -12.748 70.7209 12.3757 -3.52842  -31.319 -10.0718   2.71965  -1.67156 -0.639723 
-6.97527  174.219  750.317  1.63999 -11.6429 -15.8947  0.133578   19.1333 -0.513905  -4.83966   11.9648 0.0938714  -5.12326   5.34155 -0.156204 -5.18779 -9.44694 -2.76283    12.974   16.2712 -0.232026  5.99379 -7.44468 -3.30395 -85.0455 -2.97173  2.49057  7.77303 -3.10802 -16.1789 -0.960338    12.731  -1.28854 -3.47903 -8.58509  4.70931 72.9239 10.1137 4.98553 -12.5225 -1.74781  10.5816   2.84579   29.3986 -0.933505  10.3145 -28.3624  11.0779  13.3361  69.3937 -12.5893 -12.3845 -28.0484  -15.401  1.04829 -1.55811  5.80512 -11.9095  -29.032 0.354637 -15.8068  74.4058  15.4892 -3.97191 -32.7917 -10.9221   3.30488 -0.696812 -0.710786 
-6.70454  173.689  752.983  1.25052  -10.651 -15.3814 0.0990366   19.4268 -0.860436 -5.07836  11.6307 -0.14167  -5.37097   4.45682 -0.523435 -5.92968 -9.32733 -3.28816    13.898   15.4411 -0.303832  6.07157 -7.56476 -2.73963 -84.6496 -1.57933  1.29586  7.66998 -3.38963 -16.9751 -1.06627  11.7279 -1.49525 -3.35223 -9.07823  5.18565 73.3212 11.9806 5.04307 -12.8469 -2.14488  10.9304   2.74694   28.0289 -0.890166 10.1561 -28.584 10.3356  14.7949  71.4615 -14.1134 -12.2727  -30.254 -15.4833 0.573857 -1.58991  5.79273  -12.2137  -28.4958 -0.331876 -17.1254  75.5866   16.763 -4.48938 -33.7492 -11.6902    3.66424 -0.0777344  -0.867046 
-6.57357  174.347  755.357 0.832459 -9.84422 -13.8403 0.0697966   19.5826 -0.922274   -5.3032   11.3187 -0.182523  -5.46738   4.14417 -0.356261 -6.57902 -9.78578 -3.89619   14.7813   16.0154 -0.614786  6.74032 -7.15965  -2.2827   -84.371 -0.998576   0.73998  7.24494 -4.09155 -17.0284 -1.20214   12.175 -1.91652 -2.61216  -9.2209  5.43482 73.0638 12.1989 4.99593 -12.4605 -2.55009  11.2574  2.75996  28.2123 -1.13516  9.60663 -28.2201  8.77942  14.9973   71.714 -14.3054 -12.3214 -30.1814 -15.6844 0.0248634  -1.23096   5.71375  -11.9928  -26.8641 -0.560264 -16.7014  75.2272  16.3526 -4.54193  -33.269 -12.4353  4.25989  0.85119 -0.82095 
-6.52902  175.219  756.979 0.359142 -8.28127 -12.0506 0.0345123   20.5955 -0.526526 -5.16334  10.6612  0.15737 -5.46266  3.34089 -0.23281 -6.05157 -9.55823 -3.95802    15.361   16.5333 -0.979979  7.01226 -7.51439 -2.91858   -83.303 -0.201837  -1.13208  7.21938 -4.63631 -17.5804 -1.62219  11.0012 -1.64919 -2.66229 -9.53155  6.01785 72.9331 12.3615 6.22471 -12.3693 -2.30185   10.638  2.52022  28.3248 -1.10932  9.50947 -27.4897  8.10863  13.2187  69.2262 -12.5422 -12.2343 -31.9611 -15.3391 -0.417024  -1.66974    5.9211  -11.2927  -25.9924 -0.621313 -13.582 71.8983 13.3595 -5.98948 -33.5698 -13.4832  3.04002 0.408001 -0.69032 
-6.87378  176.626  759.397 0.0555677  -7.97504  -9.88158 -0.210733   19.6724 -0.213019  -5.51692   10.2109 0.0311453   -5.07351    3.71075 -0.0200955 -6.36988 -10.1137 -4.32057  16.3345  19.0269 -1.75351  8.25859 -7.06382 -1.51124  -82.7253  0.565329 -0.775296  6.28766 -5.34849 -16.7968  -1.7002  11.7026 -2.43982 -1.09509    -9.02  5.72661 71.8445 13.8028  5.7961 -11.3216 -2.54284  10.6375  2.43081  27.7705 -1.03871   8.7944 -25.8598  6.04882  12.3725  67.7857 -11.7547 -11.6468 -31.1391 -15.2064 -0.392991  0.085983   5.86634  -10.7513  -22.6969 -0.630216 -11.9286  69.4456  11.7989 -5.88314 -31.8465 -13.8556   4.15671   2.77736 -0.642654 
-6.91006  177.921   760.85 -0.395105   -7.0253  -8.73938 -0.227879   20.7317   0.20828 -5.07064  9.47654 0.310932  -5.06094   2.68699 -0.071653 -5.64243  -9.7171 -4.39153  16.5129   19.584 -2.06007  8.18947 -7.35758 -2.67636 -81.6289  1.32804 -2.34736   6.8595 -5.48457 -17.6784  -1.9073  10.1408 -1.94804 -1.61015 -9.16314  6.33836 71.6131  14.673 7.40907 -11.6933 -2.31114  10.0733  2.30878  27.2924 -1.10489  9.05627 -24.5799  5.59539  10.3038  63.2415 -9.65942 -12.0196 -31.7625 -14.3522 -1.42887 -1.20071  5.85629  -10.3393  -22.1796 -0.304946 -9.79067  65.1209  9.82532 -6.38196 -32.8013 -13.6308  2.45046  1.87263 -0.85097 
-7.16916  179.538  763.162 -0.526259  -6.42817  -7.50599 -0.185206    19.079  0.247739   -5.28448    9.00976 -0.0893326  -4.68732   2.78232 -0.266467 -6.16397 -10.0333 -4.53823  17.4933  21.6416 -3.27847   8.9066 -7.20316 -1.42635 -81.3727  1.57664 -1.91703  6.18114  -5.4699 -16.9247 -1.69814  10.7701 -2.47278 -0.606928  -8.90349   5.86212 70.2857 16.2608 7.22616 -11.2869 -2.42667  10.6349   2.14928   25.8665 -0.528865  8.23457 -22.7425   3.9901  9.41435  60.6786 -8.87417 -10.5355 -29.5015 -12.5504 -0.904092 -0.842479    5.6002 -10.1345 -19.2818 -0.65585 -8.41418  61.2936  8.59591 -6.05603 -30.7231 -13.9185   3.36623   2.86008 -0.481423 
-7.40138  181.162  764.921 -0.796625  -5.07599   -7.0394 -0.0703817    18.1507   0.376793  -4.85938   8.11355 0.0342293  -4.66113   2.12788 -0.467276 -6.13178 -10.0981 -4.73255   17.563  21.8659 -4.27991  8.74492 -6.96821  -1.8626 -80.9779  1.85532 -2.49472  6.41793 -5.33117 -17.3994 -1.90541  9.65193 -2.01287 -1.03254 -8.50356  5.79833  69.954 16.3409 7.91583 -11.6655 -2.29243  10.6099   2.07203   24.7508 -0.387021  8.09443 -20.6675  3.80221 8.15116 56.1625 -7.7972 -10.1154 -29.2984 -10.3261 -1.53101  -1.8569  5.75907  -9.39097  -18.1677 -0.337345 -7.80356  56.8178  8.06056 -5.71884 -29.7918 -13.5182   2.14802   1.57904 -0.178036 
